<svg xmlns="http://www.w3.org/2000/svg" xmlns:xlink="http://www.w3.org/1999/xlink" width="500" zoomAndPan="magnify" viewBox="0 0 375 374.999991" height="500" preserveAspectRatio="xMidYMid meet" version="1.0"><defs><g/></defs><rect x="-37.5" width="450" fill="#ffffff" y="-37.499999" height="449.999989" fill-opacity="1"/><rect x="-37.5" width="450" fill="#1e120d" y="-37.499999" height="449.999989" fill-opacity="1"/><g fill="#fff7e7" fill-opacity="1"><g transform="translate(159.402493, 202.454293)"><g><path d="M 21.265625 -41.1875 C 20.347656 -41.75 19.878906 -42.492188 19.859375 -43.421875 C 19.847656 -44.347656 20.09375 -45.222656 20.59375 -46.046875 L 21.046875 -46.796875 C 21.148438 -46.960938 21.390625 -47.160156 21.765625 -47.390625 C 23.265625 -48.753906 25.097656 -48.78125 27.265625 -47.46875 C 28.347656 -46.8125 28.832031 -45.972656 28.71875 -44.953125 C 28.613281 -43.929688 28.359375 -43.085938 27.953125 -42.421875 C 26.390625 -39.835938 24.160156 -39.425781 21.265625 -41.1875 Z M -61.8125 76.84375 C -64.5625 75.175781 -66.25 72.414062 -66.875 68.5625 C -67.5 64.71875 -67.425781 60.753906 -66.65625 56.671875 C -65.75 52.546875 -64.398438 48.125 -62.609375 43.40625 C -60.828125 38.6875 -58.925781 34.664062 -56.90625 31.34375 C -53.476562 25.6875 -49.550781 20.898438 -45.125 16.984375 C -40.707031 13.066406 -35.972656 9.859375 -30.921875 7.359375 C -25.785156 4.890625 -20.460938 2.960938 -14.953125 1.578125 C -9.453125 0.203125 -3.972656 -0.757812 1.484375 -1.3125 C 2.210938 -3.269531 3.117188 -5.796875 4.203125 -8.890625 C 5.285156 -11.984375 6.457031 -15.082031 7.71875 -18.1875 C 8.976562 -21.289062 10.191406 -23.800781 11.359375 -25.71875 C 11.804688 -26.46875 12.273438 -27.203125 12.765625 -27.921875 C 13.265625 -28.640625 13.835938 -29.265625 14.484375 -29.796875 C 14.816406 -30.148438 15.25 -30.25 15.78125 -30.09375 C 16.320312 -29.945312 16.800781 -29.742188 17.21875 -29.484375 C 18.46875 -28.734375 18.710938 -27.734375 17.953125 -26.484375 L 17.265625 -25.359375 C 17.035156 -25.160156 16.769531 -24.816406 16.46875 -24.328125 C 14.144531 -20.503906 12.195312 -16.503906 10.625 -12.328125 C 9.0625 -8.148438 7.851562 -4.328125 7 -0.859375 C 11.582031 -0.703125 15.585938 -0.640625 19.015625 -0.671875 C 22.441406 -0.703125 26.179688 -1.421875 30.234375 -2.828125 C 30.785156 -3.171875 31.472656 -3.09375 32.296875 -2.59375 C 32.796875 -2.289062 33.171875 -1.832031 33.421875 -1.21875 C 33.679688 -0.601562 33.582031 0.078125 33.125 0.828125 C 32.925781 1.160156 32.550781 1.5 32 1.84375 C 28.21875 3.757812 23.921875 4.648438 19.109375 4.515625 C 14.296875 4.378906 9.664062 4.328125 5.21875 4.359375 C 4.363281 6.691406 3.28125 9.59375 1.96875 13.0625 C 0.664062 16.53125 -0.46875 19.332031 -1.4375 21.46875 C -2.625 24.1875 -3.863281 26.882812 -5.15625 29.5625 C -6.445312 32.25 -7.953125 35.007812 -9.671875 37.84375 C -10.171875 38.664062 -10.816406 39.6875 -11.609375 40.90625 C -12.398438 42.132812 -13.34375 43.554688 -14.4375 45.171875 C -16.65625 48.265625 -19.179688 51.535156 -22.015625 54.984375 C -24.859375 58.441406 -27.941406 61.890625 -31.265625 65.328125 C -34.691406 68.722656 -38.144531 71.582031 -41.625 73.90625 C -45.164062 76.195312 -48.664062 77.710938 -52.125 78.453125 C -55.59375 79.191406 -58.820312 78.65625 -61.8125 76.84375 Z M -59.25 72.609375 C -57.007812 73.972656 -54.429688 74.222656 -51.515625 73.359375 C -48.566406 72.429688 -45.566406 70.816406 -42.515625 68.515625 C -39.460938 66.210938 -36.414062 63.476562 -33.375 60.3125 C -31.851562 58.738281 -30.398438 57.144531 -29.015625 55.53125 C -27.628906 53.914062 -26.328125 52.289062 -25.109375 50.65625 C -22.523438 47.320312 -20.242188 44.265625 -18.265625 41.484375 C -16.285156 38.710938 -14.867188 36.617188 -14.015625 35.203125 C -9.722656 28.128906 -5.132812 17.65625 -0.25 3.78125 C -11 5 -20.816406 7.773438 -29.703125 12.109375 C -38.597656 16.441406 -45.84375 23.21875 -51.4375 32.4375 C -52.300781 33.851562 -53.335938 35.84375 -54.546875 38.40625 C -55.765625 40.976562 -56.945312 43.675781 -58.09375 46.5 C -59.25 49.332031 -60.160156 51.851562 -60.828125 54.0625 C -61.492188 56.5 -61.984375 58.957031 -62.296875 61.4375 C -62.609375 63.925781 -62.550781 66.179688 -62.125 68.203125 C -61.707031 70.234375 -60.75 71.703125 -59.25 72.609375 Z M -59.25 72.609375 "/></g></g></g><g fill="#fff7e7" fill-opacity="1"><g transform="translate(181.854554, 216.081248)"><g><path d="M 11.546875 14.171875 C 8.210938 12.148438 6.070312 9.289062 5.125 5.59375 C 4.1875 1.894531 4.066406 -2.019531 4.765625 -6.15625 C 5.347656 -10.125 6.671875 -14.460938 8.734375 -19.171875 C 10.804688 -23.890625 12.90625 -28 15.03125 -31.5 C 16.445312 -33.820312 18.613281 -36.972656 21.53125 -40.953125 C 24.445312 -44.929688 27.785156 -49.21875 31.546875 -53.8125 C 35.304688 -58.414062 39.21875 -62.84375 43.28125 -67.09375 C 46.570312 -70.445312 49.972656 -73.617188 53.484375 -76.609375 C 57.003906 -79.597656 60.582031 -82.066406 64.21875 -84.015625 C 67.851562 -85.960938 71.363281 -87.15625 74.75 -87.59375 C 78.144531 -88.039062 81.257812 -87.40625 84.09375 -85.6875 C 86.757812 -84.070312 88.15625 -81.769531 88.28125 -78.78125 C 88.40625 -75.800781 87.769531 -72.601562 86.375 -69.1875 C 84.976562 -65.769531 83.34375 -62.519531 81.46875 -59.4375 C 80.863281 -58.445312 80.273438 -57.523438 79.703125 -56.671875 C 79.140625 -55.828125 78.585938 -55.054688 78.046875 -54.359375 C 74.742188 -49.648438 70.625 -45.238281 65.6875 -41.125 C 60.75 -37.007812 55.378906 -33.1875 49.578125 -29.65625 C 43.660156 -26.070312 37.398438 -22.785156 30.796875 -19.796875 C 24.203125 -16.816406 17.578125 -14.160156 10.921875 -11.828125 C 10.097656 -9.359375 9.503906 -6.691406 9.140625 -3.828125 C 8.773438 -0.972656 8.953125 1.691406 9.671875 4.171875 C 10.390625 6.648438 11.867188 8.570312 14.109375 9.9375 C 16.273438 11.25 18.539062 11.6875 20.90625 11.25 C 23.28125 10.8125 25.609375 9.832031 27.890625 8.3125 C 30.171875 6.789062 32.332031 5.054688 34.375 3.109375 C 36.425781 1.160156 38.128906 -0.644531 39.484375 -2.3125 C 40.046875 -2.882812 40.671875 -3.128906 41.359375 -3.046875 C 42.054688 -2.972656 42.738281 -2.734375 43.40625 -2.328125 C 43.988281 -1.972656 44.582031 -0.847656 45.1875 1.046875 C 45.789062 2.953125 46.5 4.921875 47.3125 6.953125 C 48.132812 8.984375 49.21875 10.40625 50.5625 11.21875 C 51.882812 12.019531 53.347656 12.226562 54.953125 11.84375 C 55.210938 11.769531 55.535156 11.789062 55.921875 11.90625 C 56.304688 12.03125 56.539062 12.117188 56.625 12.171875 C 58.113281 13.078125 58.40625 14.28125 57.5 15.78125 C 56.9375 16.695312 55.644531 17.132812 53.625 17.09375 C 51.601562 17.0625 49.679688 16.488281 47.859375 15.375 C 45.691406 14.0625 44.039062 12.320312 42.90625 10.15625 C 41.769531 8 40.9375 5.957031 40.40625 4.03125 C 37.84375 6.925781 34.992188 9.550781 31.859375 11.90625 C 28.722656 14.269531 25.445312 15.78125 22.03125 16.4375 C 18.625 17.09375 15.128906 16.335938 11.546875 14.171875 Z M 13.640625 -18 C 20.421875 -20.71875 27.351562 -23.738281 34.4375 -27.0625 C 41.519531 -30.382812 48.1875 -34.101562 54.4375 -38.21875 C 60.6875 -42.332031 65.898438 -46.992188 70.078125 -52.203125 C 71.003906 -53.335938 72.363281 -55.097656 74.15625 -57.484375 C 75.945312 -59.878906 77.546875 -62.238281 78.953125 -64.5625 C 80.316406 -66.8125 81.472656 -69.039062 82.421875 -71.25 C 83.367188 -73.46875 83.847656 -75.476562 83.859375 -77.28125 C 83.867188 -79.09375 83.085938 -80.476562 81.515625 -81.4375 C 79.023438 -82.945312 76.066406 -83.175781 72.640625 -82.125 C 69.210938 -81.082031 65.703125 -79.285156 62.109375 -76.734375 C 58.523438 -74.191406 55.109375 -71.46875 51.859375 -68.5625 C 48.535156 -65.34375 44.863281 -61.503906 40.84375 -57.046875 C 36.832031 -52.597656 32.925781 -47.941406 29.125 -43.078125 C 25.332031 -38.222656 22.046875 -33.507812 19.265625 -28.9375 C 16.941406 -25.113281 15.066406 -21.46875 13.640625 -18 Z M 13.640625 -18 "/></g></g></g></svg>